<svg xmlns="http://www.w3.org/2000/svg" width="30" height="30"><path d="M18.813 30.02H.02v-30h30v30ZM15.87 15.89l.012-.003c.055-.051.11-.098.16-.153l.02-.004c.03-.027.062-.054.093-.09h.016l.055-.023c.14-.117.277-.234.418-.363.02-.016.035-.047.05-.07 0 0 0-.004.016-.004.035-.043.082-.075.117-.114l.016-.004c.168-.097.3-.203.297-.44-.012-1.837-.004-3.673-.004-5.513 0-.171.008-.183.18-.187.18 0 .363.004.542 0 .075 0 .149-.02.16-.113l.008-.008q-.001-.026-.007-.074s0-.008-.02-.012a1 1 0 0 0-.137-.016h-5.601c-.153.137-.11.192-.02.192.258.004.512-.004.774.011a1 1 0 0 1 .015.168q.012 2.819 0 5.64c0 .09.028.153.098.208.21.168.41.348.617.52.02.023.04.03.086.066v-3.457c.207.086.29.207.29.398v3.203c.003.051.019.13.054.157q.328.297.668.578c.02.015.05.015.078.015.012-.062.027-.12.027-.183v-7.05q-.001-.065.004-.142c0-.07.047-.097.113-.097.067 0 .114.027.114.097l.004 2.696q-.001 2.266.004 4.531.002.083.039.172l.023.012c.082-.063.172-.118.238-.18.094-.078.168-.164.25-.246 0 0-.004-.004.012-.004.04-.043.082-.07.121-.113m5.91 2.453v.86c0 .226.012.179.184.183.129 0 .133-.004.133-.133V18.07c.28.2.441.434.605.664.07.09.102.09.176 0q.259-.362.512-.718c.097-.04.101 0 .101.043v1.152c0 .203-.008.176.184.176.14 0 .14 0 .14-.133v-1.582c0-.297.036-.254-.265-.262-.082-.004-.13.024-.176.09-.168.258-.34.496-.52.738a.4.4 0 0 1-.058.082c-.219-.297-.379-.496-.512-.715-.09-.156-.203-.214-.387-.199-.09.012-.12.04-.117.13Zm-10.886-.153v1.07c.003.118.007.122.125.122.261 0 .52.004.78-.004.11.004.227-.008.34-.035.204-.063.344-.196.38-.414a.49.49 0 0 0-.227-.524.2.2 0 0 1-.035-.031c.07-.098.156-.18.191-.281a.485.485 0 0 0-.293-.614.9.9 0 0 0-.336-.062c-.27-.012-.543 0-.82-.008-.082-.004-.105.027-.105.11.003.218 0 .433 0 .671M6.742 19.38q.09-.004.18.004c.078.012.098-.028.098-.102 0-.152.007-.316 0-.472 0-.079.03-.114.101-.11a.7.7 0 0 0 .195 0c.086-.008.145.028.2.086q.228.27.457.527c.027.032.054.067.09.067.101.004.207 0 .312 0l.016-.027-.586-.66c.465-.13.566-.52.488-.813-.07-.281-.309-.457-.637-.461-.273-.012-.55-.012-.824-.012-.117 0-.125.012-.125.125v1.719c0 .043.012.078.035.129m8.992-.922v.723c0 .238-.011.199.207.207.082 0 .11-.028.11-.102-.008-.156 0-.308-.008-.457 0-.09.031-.137.125-.129.066.008.137-.008.203.008.055.008.117.027.152.07.157.164.305.336.454.508.085.102.3.14.445.067q-.3-.334-.598-.672c.055-.02.086-.032.121-.04.184-.054.32-.199.367-.382a.64.64 0 0 0-.085-.578.63.63 0 0 0-.524-.262c-.289-.016-.57-.008-.86-.012-.085-.004-.116.032-.116.117.007.305.007.61.007.934m3.157.61h-.703c-.079.003-.118-.02-.11-.106q.006-.151 0-.3c-.008-.087.024-.122.11-.118.027.004.058 0 .09 0q.38-.001.761.004c.106 0 .133-.035.125-.125v-.012c0-.164 0-.164-.16-.164h-.817c-.078.004-.117-.027-.109-.113a4 4 0 0 0 0-.305c-.008-.082.031-.11.11-.11.28.005.558 0 .835 0 .23 0 .18-.011.188-.179 0-.121-.008-.129-.129-.129h-1.191c-.125 0-.13.008-.13.133v1.703c0 .027-.011.05.005.067.015.03.043.066.066.066q.653.005 1.305.004c.023 0 .066-.02.066-.04a2 2 0 0 0 0-.234c0-.011-.05-.03-.082-.039-.066-.004-.137-.004-.23-.004m-5.192.317c.23 0 .465.012.688-.004.406-.016.718-.168.883-.555.242-.55 0-1.402-.903-1.414-.21 0-.426.008-.64 0-.094-.004-.118.035-.118.121.004.328 0 .653 0 .98v.766c0 .051-.004.11.09.106m11.332.047c.133-.02.266-.032.387-.07a.56.56 0 0 0 .387-.532c.008-.254-.106-.422-.371-.52-.153-.05-.309-.074-.461-.113a1.3 1.3 0 0 1-.309-.086c.352-.527.598-.468.777-.304.02.015.059.023.079.015.066-.035.128-.082.214-.148-.09-.074-.164-.16-.254-.2a1.05 1.05 0 0 0-1.003.008c-.184.098-.266.274-.25.48.015.2.113.352.3.419.153.058.317.078.47.125.116.023.241.05.35.094-.35.582-.718.57-.929.28-.016-.019-.059-.042-.074-.03-.203.078-.219.148-.082.308.207.219.468.274.773.274m-20.293-.98-.422.933c.11 0 .184-.004.254 0 .067.004.098-.02.117-.074.036-.079.07-.149.102-.23.031-.083.078-.114.164-.11.234.008.469-.004.703 0 .3.008.235-.051.352.23.054.149.133.211.297.188.12-.012.128-.008.078-.121-.246-.543-.492-1.09-.742-1.633-.118-.266-.047-.211-.332-.223-.086-.004-.122.027-.153.102-.137.308-.277.617-.418.941m14.703.824a1 1 0 0 1-.027.106c.086 0 .156-.004.223.004.07.008.101-.024.132-.09.036-.086.067-.176.125-.254.008-.031.059-.066.094-.066q.458-.012.922 0c.031 0 .082.035.102.062.047.09.082.191.129.277.015.032.046.063.07.063.086.008.18.004.285.004-.02-.051-.027-.082-.04-.113-.245-.547-.5-1.094-.737-1.649-.067-.172-.149-.234-.328-.215-.082.016-.133.035-.168.117-.254.582-.52 1.16-.782 1.754m-8.933-.148-.672-1.492c-.125-.27-.055-.215-.344-.227-.07-.004-.11.027-.144.086q-.385.891-.793 1.781c-.016.032-.02.059-.036.106.09 0 .165-.004.235.004.066 0 .101-.024.129-.078.035-.094.07-.18.117-.262.02-.035.066-.07.098-.07q.463-.012.93 0c.03 0 .081.035.097.07.05.082.086.18.129.265.008.028.039.067.055.067.097.008.187 0 .304 0ZM5.3 20.816c0-.148.004-.308 0-.46 0-.036-.031-.067-.047-.102-.031.02-.07.035-.094.066-.094.145-.18.29-.285.434-.05.082-.074.082-.133 0l-.289-.438c-.027-.035-.078-.05-.133-.086 0 .07-.004.102-.004.13v.828q-.001.03.004.066c0 .02.02.035.032.043.015-.008.039-.024.046-.043.008-.024.004-.047.004-.078v-.59c0-.043.012-.078.02-.117h.031L4.81 21l.078-.102q.116-.187.238-.363c.012-.015.04-.031.059-.047.007.028.027.047.035.078.008.02 0 .051 0 .086.004.184 0 .368.004.551 0 .035.015.07.02.106q.03-.002.05-.004c.004-.153.004-.313.004-.489m1.285.454.063.027c.011-.024.027-.05.027-.074.004-.188 0-.38.004-.57 0-.032.02-.067.031-.102.027.02.074.035.094.062.168.203.332.41.496.61.02.03.05.05.09.097.008-.054.015-.082.015-.11v-.87c0-.024-.03-.059-.039-.086-.015.031-.047.062-.047.09-.003.191 0 .37-.003.558 0 .035-.02.07-.032.102-.031-.02-.078-.031-.09-.055q-.254-.31-.496-.61l-.078-.085-.035.012Zm4.41-.637c-.066-.106-.129-.211-.207-.309-.02-.027-.066-.043-.098-.07-.011.035-.039.078-.039.113v.832c0 .02-.003.043 0 .055a.3.3 0 0 0 .04.05c.011-.015.03-.03.039-.05a.2.2 0 0 0 .007-.082v-.598c0-.039.012-.074.016-.11l.336.458c.047.078.066.078.117-.004.082-.129.164-.25.246-.379.02-.031.047-.055.09-.102.008.063.016.098.016.133v.633c0 .035.02.07.035.102.012-.035.043-.067.043-.102q.006-.426 0-.848c0-.035-.028-.066-.035-.101-.04.02-.078.031-.098.062-.078.102-.137.204-.21.313-.04.07-.087.137-.145.226Zm-2.285-.059c.086-.21.32-.32.535-.25.063.016.113.059.168.082.02.012.043 0 .067.004-.008-.023-.008-.043-.02-.058a.14.14 0 0 0-.05-.043.55.55 0 0 0-.692.093.61.61 0 0 0-.008.75c.152.188.457.235.68.106.09-.051.14-.113.129-.223-.004-.062.007-.133-.004-.2-.004-.03-.04-.077-.063-.081h-.316c-.02 0-.04.031-.059.047l.016.031c.086 0 .168-.008.25 0 .023 0 .062.004.07.023.063.067.016.29-.062.332-.684-.402-.657-.5-.641-.613m15.059.45c-.032-.02-.067-.04-.09-.067-.164-.203-.332-.402-.492-.613l-.094-.106c-.008.051-.02.078-.02.114-.004.285 0 .57 0 .859 0 .031.028.062.04.094.011-.032.042-.067.046-.102v-.55c0-.036.028-.079.035-.114.032.02.067.035.09.063q.257.313.508.625c.02.027.047.046.086.09.008-.06.012-.087.012-.118a30 30 0 0 0 0-.832c0-.035-.028-.07-.043-.113-.02.043-.04.078-.043.117-.008.18 0 .363 0 .535m-10.172-.433c-.012-.075.027-.157-.05-.22-.032.298-.032.481-.036.669 0 .035-.016.07-.027.105-.036-.023-.07-.039-.094-.062-.176-.211-.344-.422-.512-.64-.02-.024-.031-.055-.05-.09-.032.038-.04.046-.04.054-.004.32-.008.645-.008.965 0 .016.032.035.047.043.012-.008.032-.024.036-.043.007-.031 0-.059 0-.086q0-.271.007-.535a.2.2 0 0 1 .028-.098c.027.016.062.031.082.055l.504.62q.04.05.082.087l.03-.008Zm3.879.175.02-.125c.007 0 .023-.003.035-.003.214.253.421.52.652.8.012-.054.02-.078.02-.101q.005-.44 0-.88c0-.023-.028-.054-.04-.081-.011.027-.035.058-.035.082-.008.2-.008.394-.008.598 0 .035-.004.066-.007.101l-.688-.789-.031.95c0 .023-.008.042.004.062.004.015.02.027.03.043.013-.016.036-.024.036-.032a.4.4 0 0 0 .012-.085Zm-5.645.415c0 .042.004.09 0 .128-.008.082.028.118.11.118.183-.004.37 0 .55 0 .028 0 .051-.032.079-.04-.028-.011-.051-.042-.079-.042-.09-.004-.183 0-.28 0-.34-.008-.29.062-.294-.32 0-.075.031-.098.106-.098h.383c.039-.004.07-.024.105-.04-.035-.011-.07-.03-.117-.035-.067-.004-.133 0-.2 0-.32-.011-.277.059-.277-.297-.008-.078.024-.113.106-.105.152.004.3 0 .449 0 .055-.05.023-.078.004-.078h-.551c-.074-.004-.094.031-.094.101Zm13.766-.79c-.184-.062-.363-.07-.531.036.093.449.164.464.23.484.09.027.192.039.274.082.046.027.101.102.097.152 0 .063-.047.133-.097.168-.137.098-.387.067-.516-.058-.012-.016-.023-.035-.043-.047-.016-.012-.043-.012-.05 0-.013.004-.016.035-.013.047.215.207.489.226.668.136.137-.402.047-.468-.07-.503-.113-.032-.23-.051-.348-.082-.082-.028-.152-.06-.152-.168 0-.094.059-.165.164-.188.153-.043.301-.043.426.078.016.016.039.016.066.016-.004-.02 0-.051-.007-.063-.028-.031-.059-.054-.098-.09m-6.633.957c-.18.043-.344.016-.476-.125-.012-.015-.051-.015-.079-.02q-.009.014-.007.024.018.042.043.07c.144.173.503.208.683.063-.105-.469-.176-.492-.246-.508-.086-.027-.18-.03-.262-.066-.043-.02-.101-.09-.105-.14.207-.255.45-.235.562-.137a.3.3 0 0 0 .09.035c-.012-.035-.015-.07-.035-.094-.14-.125-.309-.113-.477-.078-.152.031-.234.129-.234.254-.004.14.067.215.23.258.102.027.208.05.313.078.125.031.176.097.176.183 0 .114-.067.168-.176.203m-2.805-.34c.059.266.22.422.465.438.246.02.453-.101.535-.32.125-.352-.043-.82-.546-.774-.31.028-.504.293-.454.657m3.317-.399c0-.055.008-.105 0-.16 0-.023-.024-.047-.04-.074-.011.027-.034.047-.034.066-.004.215-.012.43.003.637.004.164.102.27.254.328.274.09.528-.082.536-.379.007-.18 0-.375 0-.562 0-.016.007-.04 0-.047-.051-.031-.07-.02-.075 0a1 1 0 0 0-.007.078v.535c-.004.156-.086.266-.223.305-.203.058-.387-.063-.402-.29-.012-.136-.004-.277-.012-.437m-14.067.785c.036.051.07.032.09-.015a1 1 0 0 0 .063-.125c.02-.063.062-.082.125-.078.11.003.218.011.324-.004.152-.016.242.027.289.175.004.032.047.06.074.082q.01-.003.032-.019c-.012-.027-.016-.055-.032-.082q-.195-.447-.39-.887c-.02-.027-.051-.062-.07-.062-.032.004-.067.035-.083.062zm2.832-.597a6 6 0 0 0-.16-.356c-.011-.023-.054-.062-.078-.062-.027 0-.062.039-.074.062q-.199.445-.39.883c-.016.027-.016.063-.024.09q.012.014.023.015c.02-.019.051-.035.067-.054.07-.18.117-.207.187-.2q.14.008.274 0c.16-.019.293 0 .34.196.003.023.05.039.074.058l.031-.03q-.135-.287-.27-.602m14.043-.293c-.132.3-.27.601-.398.906l.031.02q.042-.028.07-.055c.079-.18.122-.203.192-.2q.157.01.316-.003c.145-.016.243.027.282.175.011.032.054.06.078.082l.035-.019-.09-.215q-.169-.381-.344-.762c-.09-.058-.117-.027-.136-.007-.016.023-.02.043-.036.078m-7.113.37c.035-.402.371-.573.73-.355.005.004.016.016.024.016.016 0 .031-.008.047-.008 0-.02.004-.035-.004-.05-.23-.16-.465-.16-.648-.044-.204.141-.262.34-.223.575.074.468.586.535.844.336.02-.016.027-.051.035-.082-.028.007-.059 0-.082.015-.352.223-.696.031-.723-.402m-4.945.055c.023 0 .058.003.086 0 .027-.012.047-.032.07-.043-.027-.012-.047-.032-.07-.036-.078-.004-.156 0-.242 0-.336-.011-.286.07-.29-.308 0-.07.028-.102.102-.094.149.004.3 0 .453 0 .028 0 .055-.023.074-.031-.023-.016-.043-.04-.066-.04q-.276-.009-.562-.007c-.067 0-.086.027-.086.086.003.297.003.586 0 .879 0 .07.03.093.101.09h.547c.023 0 .055-.028.082-.036-.027-.015-.059-.043-.09-.046q-.228-.005-.457-.004c-.062.004-.098-.028-.098-.09a1 1 0 0 0 0-.23c0-.067.028-.098.102-.094.102.007.215 0 .344 0m11.285-.454q.125.002.25-.007c.023 0 .039-.024.062-.043-.023-.008-.043-.028-.07-.032-.035-.007-.07 0-.11 0-.187 0-.382-.003-.566 0-.027 0-.047.024-.066.036.02.015.039.039.062.039.055.007.11.004.16.004.13 0 .133.003.133.136.008.242 0 .485.008.73 0 .024.032.06.043.087.016-.028.043-.063.043-.094.004-.238 0-.48.004-.723 0-.047.02-.082.047-.133m-7.387.332c0 .172 0 .352.004.524 0 .031.024.062.04.086.015-.024.034-.055.034-.086.008-.207 0-.414.008-.633 0-.262-.015-.223.227-.226l.136-.016v-.031c-.011-.016-.035-.032-.05-.032h-.715c-.016 0-.04.028-.055.043.024.008.04.032.063.032.07.004.136.004.21.004q.096-.005.098.09Zm6.29-.058v.594c0 .066.019.09.085.09.164-.004.332 0 .496-.004.032 0 .051-.028.082-.036-.03-.015-.05-.043-.082-.046a6 6 0 0 0-.37 0c-.095.003-.13-.036-.13-.133.012-.25.004-.508 0-.762 0-.023-.02-.047-.035-.074-.015.027-.047.047-.047.074-.004.09-.004.18-.004.293m3.606-.328c.023.02.039.05.058.05q.102.008.204 0c.086-.007.109.028.101.11v.664q-.002.07.008.133c0 .02.02.035.027.05.016-.015.04-.027.047-.042q.005-.047.004-.086v-.54c0-.28 0-.28.277-.288a.2.2 0 0 0 .094-.024v-.035c-.039-.004-.07-.016-.11-.016a10 10 0 0 0-.48 0c-.07 0-.148.012-.226.024m0 0" style="stroke:none;fill-rule:nonzero;fill:#5c3854;fill-opacity:1"/><path d="M14.918 16.406c-.023-.011-.055-.011-.078-.027-.219-.188-.445-.375-.664-.574-.035-.032-.051-.106-.059-.157v-3.203c0-.191-.078-.316-.281-.398v3.46c-.05-.038-.07-.054-.094-.066-.203-.175-.402-.355-.613-.523-.09-2.086-.09-3.965-.098-5.848-.086-.199-.144-.218-.203-.218-.176-.004-.355 0-.535-.004-.043 0-.082-.028-.133-.036l5.63-.058c.034 0 .07-.008.1.008.028.02.063.05.094.078a.03.03 0 0 1-.02.008c-.234 0-.456 0-.683.004-.043 0-.093.02-.144.035-.047 1.136-.047 2.14-.047 3.144 0 .895 0 1.785.004 2.684-.153.242-.207.3-.262.351l-.004.008c-.047.028-.09.07-.133.106-.175.152-.355.308-.53.465h-.013l-.101.09-.008.003-.172.157h-.012q-.066.055-.125.109s.004.004-.004.004c-.171.14-.328.277-.492.418l-.015-.012q-.005-3.696-.004-7.379c0-.027.004-.055-.004-.086-.008-.015-.024-.047-.031-.05-.079 0-.157-.012-.239.007-.023.008-.03.098-.03.153v7.222c0 .047.003.086.003.125m1.3-7.5c-.155-.02-.206.031-.206.192v5.96c0 .087.011.169.101.192.102.031.153-.031.203-.117.004-.047.016-.098.016-.14V9.171l-.082-.25c-.008-.004-.012-.008-.031-.016m-2.102.645c0-.168.008-.34 0-.5 0-.094-.055-.149-.137-.153-.085 0-.144.059-.148.153v.09c0 .77.004 1.539-.008 2.308-.008.227.153.29.266.395l.027-.008Zm0 0" style="stroke:none;fill-rule:nonzero;fill:#d3a65a;fill-opacity:1"/><path d="M21.781 18.324c0-.265.004-.527 0-.789-.004-.09.028-.117.121-.129.18-.015.293.043.391.196.129.222.289.418.43.628q.029.037.074.09c.027-.03.05-.05.058-.082.18-.242.36-.48.528-.738.039-.062.086-.094.168-.09.3.008.265-.035.265.262v1.582c0 .133 0 .133-.132.133-.2 0-.192.027-.192-.176v-1.152c0-.043-.004-.082-.008-.153-.043.051-.074.078-.093.11q-.253.356-.512.718c-.067.09-.106.09-.172 0a22 22 0 0 1-.488-.691c-.117-.05-.121-.012-.121.027v1.184c0 .129-.004.133-.133.133-.172-.004-.184.043-.184-.184Zm0 0" style="stroke:none;fill-rule:nonzero;fill:#d0a35d;fill-opacity:1"/><path d="M10.895 18.176c0-.227.003-.438 0-.66 0-.082.03-.11.105-.106.273.004.55-.004.824.004q.176.007.336.066a.49.49 0 0 1 .293.614c-.039.101-.125.183-.191.277 0 0 .011.024.031.031.18.11.27.32.227.528-.036.218-.172.351-.38.41-.109.027-.226.039-.34.035-.26.012-.519.008-.78.008-.118 0-.122-.008-.125-.121Zm.316.644c0 .051.004.102 0 .153-.008.086.023.117.117.117.152-.004.317.008.473-.004.441-.129.476-.356.316-.469-.465-.117-.637-.105-.816-.105-.063 0-.09.02-.09.09Zm.203-1.125c-.027 0-.059.004-.078 0-.098-.008-.137.02-.125.121.008.102.004.211 0 .317 0 .07.027.09.094.09h.543c.308-.086.359-.262.254-.399-.403-.129-.543-.129-.692-.129m0 0" style="stroke:none;fill-rule:nonzero;fill:#d1a45d;fill-opacity:1"/><path d="M6.734 19.375c-.007-.05-.027-.086-.027-.125v-1.719c0-.117.008-.129.125-.129q.414 0 .824.012c.328.004.567.176.637.465.078.289-.023.68-.41.773l.515.7c-.007.007-.015.02-.015.023-.113 0-.219.004-.32 0-.04 0-.063-.035-.083-.066a30 30 0 0 1-.464-.524c-.055-.062-.114-.098-.2-.086a2 2 0 0 1-.195 0q-.103-.012-.101.106c.007.156 0 .32 0 .472 0 .078-.02.114-.094.102-.063-.004-.117-.004-.192-.004m.61-.969q.153.001.312-.004c.211-.004.34-.144.34-.347-.523-.36-.703-.356-.894-.356-.063 0-.082.02-.082.086v.535c0 .063.027.094.093.086.07-.004.145 0 .23 0m0 0" style="stroke:none;fill-rule:nonzero;fill:#d0a35d;fill-opacity:1"/><path d="M15.734 18.445q.001-.466-.004-.922c0-.09.036-.117.118-.117.285.004.57-.008.855.008a.638.638 0 0 1 .613.84.55.55 0 0 1-.37.39c-.028.004-.063.02-.122.036l.594.672c-.14.07-.355.035-.441-.067a9 9 0 0 0-.454-.508c-.035-.043-.097-.062-.152-.074-.066-.015-.137 0-.203-.004-.094-.012-.125.035-.125.13.008.151 0 .3.008.456 0 .07-.028.102-.11.102-.218-.012-.207.031-.207-.207Zm1.262-.53c-.062-.15-.183-.216-.344-.216h-.504q-.099-.01-.105.09.012.264 0 .527c0 .075.031.098.105.094.16-.008.329.004.497 0 .293-.008.433-.195.355-.496m0 0" style="stroke:none;fill-rule:nonzero;fill:#d1a45d;fill-opacity:1"/><path d="M18.906 19.066c.078 0 .149 0 .223.004.031.004.074.028.074.04q.012.116 0 .238c0 .015-.047.035-.066.035q-.652-.001-1.297-.008c-.031 0-.059-.035-.074-.062-.008-.016-.004-.043-.004-.067v-1.703c0-.129.004-.133.129-.133h1.191c.129 0 .129.004.129.133 0 .164.043.18-.188.18-.277 0-.554.004-.832 0-.082 0-.117.023-.113.105q.006.154 0 .309c-.008.082.031.113.11.11h.824c.152 0 .152 0 .152.163v.008c.016.094-.02.129-.121.129-.254-.004-.512 0-.77 0h-.085c-.086-.012-.118.031-.11.113q.006.152 0 .305c-.008.082.031.105.11.101Zm-5.215.317c-.086.004-.082-.059-.082-.11v-.761c0-.328.004-.653 0-.98 0-.09.028-.126.118-.122.214.004.433 0 .64 0 .906.008 1.145.86.906 1.41-.168.39-.48.543-.886.555-.223.016-.45.008-.696.008m.618-.309c.394-.004.57-.125.703-.469a.69.69 0 0 0-.063-.566.68.68 0 0 0-.472-.32c-.16-.012-.32-.004-.48 0-.028 0-.067.043-.067.07-.004.398-.004.805-.004 1.211 0 .055.027.074.074.074Zm10.718.356c-.297 0-.558-.059-.761-.278-.141-.156-.125-.23.074-.304.289.32.66.332.91.257-.012-.554-.133-.578-.25-.605-.156-.047-.312-.066-.469-.121-.191-.067-.289-.219-.3-.418-.016-.207.066-.383.253-.48a1.04 1.04 0 0 1 1.004-.008c.082.039.157.125.25.199-.09.062-.152.11-.218.144-.02.012-.06 0-.079-.015a.66.66 0 0 0-.652-.14c-.023.491.078.515.18.534.156.04.32.059.472.11.262.097.372.265.364.527 0 .238-.157.45-.387.523-.121.043-.254.051-.39.075m-20.286-.985c.14-.32.285-.629.418-.941.031-.07.067-.102.152-.094.286.008.22-.047.34.219l.735 1.637c.05.109.043.105-.082.12-.157.02-.239-.042-.293-.187-.117-.281-.051-.226-.352-.23-.234-.008-.469.004-.703 0-.086-.008-.133.023-.164.11-.031.077-.066.148-.102.226-.02.054-.05.082-.109.074-.078-.004-.152 0-.258 0Zm.465-.312c-.074.172-.156.347-.234.535h.816l-.41-.922Zm14.242 1.137c.262-.586.524-1.168.778-1.75.043-.082.085-.102.168-.118.18-.02.261.047.328.215.234.555.492 1.102.738 1.653.012.03.027.058.039.109-.105 0-.2.008-.277-.004-.032 0-.063-.031-.075-.059-.05-.093-.085-.191-.132-.277-.02-.031-.063-.066-.102-.066a36 36 0 0 0-.922 0c-.035 0-.078.035-.094.066a1.4 1.4 0 0 0-.125.254c-.03.066-.062.098-.128.094-.07-.012-.141-.008-.227-.008Zm.973-1.454-.379.852h.824l-.215-.48-.164-.364c-.011-.023-.023-.074-.066-.008m-9.906 1.32.109.239c-.117 0-.215.012-.309 0-.02 0-.043-.04-.058-.066-.043-.086-.078-.18-.13-.266-.015-.035-.062-.07-.097-.07a37 37 0 0 0-.93 0c-.03 0-.078.035-.097.07-.04.082-.086.168-.117.262q-.032.081-.121.082c-.079-.012-.153-.008-.243-.008.016-.043.02-.074.04-.106.269-.59.53-1.187.792-1.777.032-.062.07-.094.145-.086.29.008.223-.047.34.223.223.5.453 1 .676 1.504m-.559-.516-.371-.84h-.031c-.133.29-.262.586-.403.89.278 0 .536.005.782 0 .015 0 .02-.019.023-.05m0 0" style="stroke:none;fill-rule:nonzero;fill:#d0a35d;fill-opacity:1"/><path d="m14.922 16.402-.008-7.343c0-.055.008-.149.031-.153.082-.02.16-.011.239-.011.007.007.027.039.03.054.009.028.005.059.005.086v7.383c-.012-.059-.031-.113-.031-.176-.004-1.5-.004-3.015-.004-4.523V9.145q.001-.061-.004-.122c0-.07-.043-.097-.114-.097-.066 0-.105.027-.113.097q-.005.076-.004.145v7.039c0 .066-.015.129-.027.195m0 0" style="stroke:none;fill-rule:nonzero;fill:#724944;fill-opacity:1"/><path d="M5.3 20.824v.477c-.015 0-.038 0-.054.008-.008-.036-.023-.067-.023-.11-.004-.18 0-.363-.004-.547 0-.03.008-.066 0-.09-.008-.03-.024-.05-.035-.074-.016.016-.047.028-.059.043q-.122.181-.238.364l-.078.101-.356-.531h-.031c-.008.043-.02.078-.02.117v.594c0 .023.004.054-.004.074-.007.023-.03.035-.046.05-.012-.015-.028-.027-.032-.05-.004-.02 0-.05 0-.062a30 30 0 0 1 0-.833c0-.027 0-.058.004-.128.055.035.106.05.13.085.097.145.187.293.288.442.059.082.082.082.14 0 .095-.145.18-.293.286-.434.016-.03.055-.047.086-.066.016.035.043.066.043.101.008.153 0 .313 0 .47m0 0" style="stroke:none;fill-rule:nonzero;fill:#c59a6a;fill-opacity:1"/><path d="M6.586 21.258v-.996l.031-.008c.028.023.055.055.082.086q.234.3.492.605c.012.028.059.04.09.059.012-.031.032-.067.032-.106.003-.18 0-.363.003-.554.004-.032.032-.059.047-.09.008.023.04.055.04.086.007.289.007.582 0 .87 0 .028-.008.056-.012.106-.043-.043-.07-.066-.094-.093-.164-.2-.32-.41-.488-.61-.028-.031-.075-.043-.102-.066-.012.035-.031.074-.031.105-.008.192 0 .38-.008.57 0 .024-.012.044-.023.075m-.063-.04" style="stroke:none;fill-rule:nonzero;fill:#be9366;fill-opacity:1"/><path d="m10.996 20.637.149.218c.058-.093.105-.156.144-.23l.211-.312c.02-.028.059-.04.098-.06.007.036.035.067.035.102.004.282.004.567 0 .844 0 .035-.028.067-.043.102l-.035-.73c0-.04-.008-.075-.016-.134-.172.231-.25.352-.336.481-.05.078-.062.078-.117.004l-.242-.383c-.098-.043-.11-.008-.11.035v.594a.2.2 0 0 1-.007.082c0 .023-.024.035-.04.05-.011-.015-.027-.027-.035-.05-.007-.016-.004-.035-.004-.05v-.837c0-.035.028-.074.04-.11.039.024.082.036.101.071.074.098.137.2.207.313m0 0" style="stroke:none;fill-rule:nonzero;fill:#c59a6a;fill-opacity:1"/><path d="M17.977 8.852s.003 0 .007-.016l.036-.027c-.012.093-.079.113-.16.113-.18.004-.36 0-.544 0-.168.004-.18.015-.18.187q-.003 2.759.005 5.512c.004.238-.121.344-.301.445q.075-.081.164-.152c.086-1.09.086-1.988.086-2.883q-.001-1.506.004-3.011c0-.043.02-.086.047-.13.25-.003.488 0 .722-.003m.114-.043" style="stroke:none;fill-rule:nonzero;fill:#724944;fill-opacity:1"/><path d="M8.703 20.582c-.012.105-.039.203-.02.29.02.144.11.273.243.339.5-.066.547-.29.488-.356-.012-.02-.05-.027-.074-.027-.082-.004-.164 0-.25 0l-.016-.031c.028-.012.04-.043.063-.043.105 0 .207-.008.308 0 .028.004.063.05.067.082.011.062 0 .137.008.203.015.106-.043.168-.133.219a.56.56 0 0 1-.684-.11.64.64 0 0 1 .012-.753.556.556 0 0 1 .691-.086c.02.011.047.02.055.043.008.011.008.035.016.058-.024-.004-.04.004-.059-.004-.063-.027-.113-.066-.176-.082-.234-.062-.426.031-.539.262m15.07.437c.028-.289.028-.476.028-.652.004-.043.031-.078.043-.117.015.039.043.074.043.11q.006.42 0 .835c0 .031-.004.059-.012.117-.04-.043-.066-.066-.086-.09-.168-.203-.336-.417-.508-.628-.023-.024-.054-.04-.09-.059-.007.035-.027.074-.027.113-.008.18 0 .364-.008.547-.004.035-.031.074-.043.102-.015-.028-.043-.059-.043-.09 0-.29-.004-.574 0-.86 0-.038.012-.062.02-.113.043.047.074.075.094.114l.5.605q.03.036.09.066m0 0" style="stroke:none;fill-rule:nonzero;fill:#c2986a;fill-opacity:1"/><path d="M13.629 20.48v.813l-.031.004c-.024-.031-.055-.055-.075-.086l-.507-.621c-.02-.027-.059-.043-.086-.059a6 6 0 0 0-.035.637c0 .027.007.055 0 .082-.004.023-.024.035-.036.047-.015-.012-.046-.031-.046-.047q0-.48.007-.96c0-.013.008-.017.043-.056.016.036.028.063.047.09q.259.321.512.637c.023.027.058.043.094.066.011-.035.027-.07.027-.105.004-.188.008-.375.004-.559.11-.05.07.032.082.117m3.879.176v.528q.002.041-.008.09c-.004.007-.027.019-.04.023-.042-.055-.034-.074-.034-.098v-.847c0-.032.004-.059.031-.106l.652.809a.06.06 0 0 0 .036-.016c.003-.035.007-.066.007-.102 0-.203 0-.398.008-.597 0-.027.024-.055.035-.086.016.031.043.058.043.086v.875c0 .02-.011.05-.023.101-.23-.277-.438-.543-.649-.8a.23.23 0 0 0-.058.14m0 0" style="stroke:none;fill-rule:nonzero;fill:#c59a6a;fill-opacity:1"/><path d="M11.863 21.05v-.695c0-.07.02-.109.102-.109h.543c.02 0 .05.031.074.043-.023.012-.047.035-.078.04h-.45q-.111-.008-.105.108c0 .352-.035.286.278.297.066 0 .132-.007.207 0 .039 0 .074.02.117.036-.035.015-.074.035-.114.035a6 6 0 0 1-.382 0c-.075 0-.106.023-.106.093.004.387-.047.317.293.325h.281c.028.004.051.027.079.043-.028.011-.051.035-.079.035-.18.008-.363 0-.543.008-.09 0-.125-.036-.117-.125.004-.036 0-.079 0-.13m13.77-.777c.035.032.07.051.09.082.015.012.011.043.011.067-.02-.004-.05 0-.058-.016-.133-.125-.281-.117-.434-.082-.101.024-.164.098-.164.188 0 .105.07.144.156.172.114.023.23.046.344.082.117.035.207.093.219.234-.34.36-.57.34-.746.21-.074-.097-.07-.12-.059-.132.07.016.082.035.094.055.137.12.379.156.516.058.05-.035.101-.113.101-.168 0-.054-.05-.129-.101-.156-.082-.043-.18-.058-.27-.078-.07-.02-.14-.035-.203-.059.14-.539.316-.53.504-.457m-6.63.953c.102-.035.173-.097.173-.203q.007-.135-.18-.187c-.105-.031-.21-.047-.312-.078-.164-.043-.235-.125-.23-.254 0-.13.089-.23.233-.262.168-.027.336-.043.477.082.02.024.023.063.035.098-.031-.012-.066-.02-.09-.04-.117-.093-.355-.116-.472-.023-.086.215-.028.278.023.301.078.04.168.043.254.07.074.02.145.036.215.063.168.09.18.332.031.445-.18.145-.535.106-.683-.062-.016-.028-.032-.047-.043-.07q-.002-.017.007-.028c.028 0 .07 0 .079.023.132.141.296.168.484.122m-2.813-.34c-.05-.356.145-.633.45-.66.507-.04.683.43.55.777-.082.219-.289.34-.535.32-.238-.015-.406-.176-.465-.437m.957-.04v-.105c-.011-.254-.175-.422-.41-.433-.25-.016-.422.128-.468.378-.04.247.09.477.3.543.278.079.504-.066.578-.382m0 0" style="stroke:none;fill-rule:nonzero;fill:#c2986a;fill-opacity:1"/><path d="M19.512 20.496c0 .156-.004.297.008.434.015.218.199.343.406.285.133-.04.215-.149.219-.305v-.539c0-.02 0-.05.007-.074.004-.02.032-.027.043-.043.04.055.032.074.032.09 0 .187.007.379 0 .566a.38.38 0 0 1-.168.328.4.4 0 0 1-.368.051c-.261-.543-.265-.754-.257-.965 0-.027.023-.047.035-.066.015.02.039.047.047.07Zm0 0" style="stroke:none;fill-rule:nonzero;fill:#c59a6a;fill-opacity:1"/><path d="M5.453 21.266q.2-.481.41-.946c.102-.066.14-.027.153 0q.197.44.39.887c.016.027.02.059.032.086-.012.004-.024.016-.032.02-.027-.028-.066-.051-.074-.083-.047-.152-.14-.199-.285-.183-.11.02-.219.012-.328.008-.063 0-.106.011-.125.078-.082.168-.114.195-.149.133m.543-.813c-.148.11-.234.305-.32.512h.539Zm2.285.227.27.601-.031.028c-.024-.024-.063-.036-.075-.059-.042-.195-.171-.219-.34-.195q-.136.012-.273 0c-.07-.008-.113.027-.136.093-.067.13-.098.145-.118.165l-.023-.016.023-.098c.13-.289.262-.586.39-.875.013-.027.052-.066.08-.066.023 0 .062.039.073.066.059.117.114.235.16.363m-.043.29c.063 0 .07-.032.043-.086q-.095-.239-.203-.477c-.133.148-.215.344-.312.563Zm14.09-.602c.016-.023.024-.047.04-.066.007-.02.038-.055.062-.051.183.305.3.562.41.816l.098.211-.043.027c-.028-.027-.063-.05-.078-.082-.036-.152-.13-.199-.282-.183-.105.02-.21.012-.316.008-.066 0-.113.02-.14.086-.063.136-.094.152-.118.172l-.035-.028c.133-.305.273-.598.402-.91m-.117.46-.043.126h.527c-.085-.207-.167-.398-.25-.59-.007.004-.019.004-.027.004Zm0 0" style="stroke:none;fill-rule:nonzero;fill:#c2986a;fill-opacity:1"/><path d="M18.02 8.809c-.008.007-.012.015-.036.027a.6.6 0 0 0-.093-.078c-.032-.012-.067-.004-.102-.004h-5.453c-.059 0-.11.012-.164.012q.054.08.121.086h.535c.059 0 .113.02.176.03q-.381.014-.762.009c-.09 0-.133-.055-.12-.164.054-.008.1-.008.151-.008h5.747zm0 0" style="stroke:none;fill-rule:nonzero;fill:#cda26d;fill-opacity:1"/><path d="M15.203 20.77c.027.421.371.605.73.39.016-.015.051-.012.079-.015-.012.027-.02.062-.04.078-.257.199-.769.129-.847-.336-.035-.23.023-.434.227-.575a.55.55 0 0 1 .597 0c.02.016.04.028.051.047.012.012.008.032.008.051q-.029.002-.051.004c-.008 0-.016-.012-.027-.02-.356-.21-.692-.042-.727.376m-4.957.035c-.117 0-.223.004-.332 0-.074 0-.098.03-.098.093v.23c0 .067.032.09.094.09h.457c.04.009.063.032.09.055-.027.008-.055.028-.082.028h-.547c-.07.008-.098-.016-.098-.086v-.875c0-.063.024-.09.086-.09q.277-.001.559.004c.023 0 .043.023.063.047-.02.008-.043.027-.07.027h-.454c-.074-.004-.098.027-.098.094 0 .383-.043.297.29.312.082 0 .16-.007.238 0 .027 0 .047.02.07.036-.027.007-.047.027-.07.035-.028.008-.055 0-.098 0m0 0" style="stroke:none;fill-rule:nonzero;fill:#c2986a;fill-opacity:1"/><path d="M21.54 20.355c-.024.047-.044.086-.044.133-.004.239 0 .485-.004.723 0 .031-.027.062-.043.09-.012-.028-.043-.059-.043-.086-.008-.242 0-.488-.008-.727 0-.133-.003-.136-.125-.136q-.082-.001-.171-.008c-.02 0-.04-.024-.059-.04.027-.011.039-.034.066-.034h.567c.039 0 .082-.008.11 0 .026.003.054.023.073.035-.023.015-.043.039-.066.039zm0 0" style="stroke:none;fill-rule:nonzero;fill:#be9366;fill-opacity:1"/><path d="M14.156 20.672v-.23c0-.067-.035-.098-.097-.09q-.106-.001-.211-.008c-.028 0-.04-.02-.063-.032.016-.011.04-.039.055-.042q.363.002.715.003c.015 0 .035.016.054.028.004.012 0 .02 0 .027l-.132.024c-.25 0-.235-.04-.235.226-.008.211 0 .426-.008.633 0 .027-.02.062-.027.086-.016-.027-.047-.063-.047-.09-.004-.176-.008-.352-.004-.535m0 0" style="stroke:none;fill-rule:nonzero;fill:#c2986a;fill-opacity:1"/><path d="M20.445 20.613c0-.101-.004-.199 0-.285 0-.031.032-.05.047-.074.012.023.04.05.04.074 0 .254.007.512 0 .766 0 .09.03.133.124.129h.375c.028.004.055.027.078.05-.027.008-.05.028-.078.028-.168.008-.328 0-.5.008-.062 0-.086-.024-.086-.086Zm0 0" style="stroke:none;fill-rule:nonzero;fill:#be9366;fill-opacity:1"/><path d="M24.059 20.29c.078-.013.148-.02.222-.02h.477a.3.3 0 0 1 .11.02v.034c-.028.004-.06.02-.095.02-.273.008-.273.008-.273.293v.531c0 .031.004.062-.008.09-.008.015-.027.027-.039.043-.015-.016-.035-.028-.035-.051-.008-.043 0-.086 0-.133 0-.219-.008-.441 0-.66 0-.082-.023-.121-.11-.113a1 1 0 0 1-.203 0c-.02 0-.035-.032-.046-.055m0 0" style="stroke:none;fill-rule:nonzero;fill:#c2986a;fill-opacity:1"/><path d="M18.012 8.715c-1.91.004-3.82.008-5.739.008q-.07.001-.152-.004c.04-.004.09-.02.145-.02h5.597c.047 0 .09.008.149.016m0 0" style="stroke:none;fill-rule:nonzero;fill:#623a39;fill-opacity:1"/><path d="M16.16 15.64q.27-.234.531-.456l-.46.433c-.016.008-.044.016-.067.028m-.918.78q.24-.21.48-.417-.105.129-.234.246c-.07.062-.16.117-.246.172m.637-.535q.069-.077.156-.149c-.05.055-.105.102-.156.149m.82-.711q.052-.054.121-.114m-1.082.938c.035-.035.074-.07.117-.113m2.16-7.086q.001-.031.008-.063a.3.3 0 0 1-.007.063m0 0" style="stroke:none;fill-rule:nonzero;fill:#724944;fill-opacity:1"/><path d="M16.254 8.934c.016.02.031.035.047.062.004.043 0 .066 0 .106v5.793c.004.078.004.168.004.246-.04.078-.09.14-.192.109-.09-.027-.101-.11-.101-.187V9.102c0-.165.054-.215.215-.192.015.012.023.012.027.024m0 0" style="stroke:none;fill-rule:nonzero;fill:#613b50;fill-opacity:1"/><path d="M14.117 9.559v2.277l-.027.012c-.113-.114-.274-.176-.266-.399.012-.77.008-1.539.008-2.308v-.094c.004-.09.063-.152.148-.152.082.007.137.062.137.152.008.172 0 .34 0 .512m0 0" style="stroke:none;fill-rule:nonzero;fill:#623c4f;fill-opacity:1"/><path d="M16.309 15.137q-.007-.124-.008-.242V9.102c0-.04.004-.063.008-.106a1 1 0 0 1 .023.176v5.816c0 .055-.012.098-.023.149m1.656-6.293c-.336.047-.574.043-.817.043.04-.016.082-.035.133-.035h.684m-1.715.07s-.008 0-.016-.004c.004-.004.008 0 .016.004m0 0" style="stroke:none;fill-rule:nonzero;fill:#cda26d;fill-opacity:1"/><path d="M11.21 18.813v-.211c0-.07.028-.09.09-.09.18 0 .352-.016.524.004.453.214.418.441.235.515-.414.067-.579.055-.73.059-.099.008-.126-.031-.118-.117.004-.051 0-.102 0-.16m.21-1.118c.142 0 .274 0 .411.004.375.262.324.438.16.496-.328.032-.508.032-.687.032-.063 0-.094-.024-.094-.094q.006-.159 0-.317c-.012-.101.027-.128.125-.12.02.003.05 0 .086 0m0 0" style="stroke:none;fill-rule:nonzero;fill:#613b50;fill-opacity:1"/><path d="M7.332 18.41c-.078 0-.148-.008-.219 0-.066.004-.093-.027-.093-.09v-.53c0-.067.02-.09.082-.09.191 0 .37-.005.55 0 .344.562.215.698.004.702a9 9 0 0 1-.324.008m9.664-.492c.082.297-.058.484-.351.492-.168.004-.336-.008-.497 0-.074.004-.105-.02-.105-.094a6 6 0 0 0 0-.527q0-.098.105-.09h.504c.16 0 .278.067.344.219m0 0" style="stroke:none;fill-rule:nonzero;fill:#5f3a51;fill-opacity:1"/><path d="M14.297 19.074H14c-.05 0-.074-.02-.074-.074q-.001-.608.004-1.215c0-.023.039-.062.066-.062.16-.008.32-.016.48 0a.68.68 0 0 1 .473.316.7.7 0 0 1 .063.57c-.133.344-.309.461-.715.465m0 0" style="stroke:none;fill-rule:nonzero;fill:#5f3a52;fill-opacity:1"/><path d="m5.21 18.125.169-.379.41.922h-.816c.078-.188.156-.363.238-.543m15.215-.316c.039-.059.05-.008.062.015l.164.363c.07.153.137.313.211.481h-.82Zm-10.465.824c-.012.02-.02.047-.027.047h-.782c.141-.313.27-.61.403-.903l.03.004q.188.424.376.852m0 0" style="stroke:none;fill-rule:nonzero;fill:#613b50;fill-opacity:1"/><path d="M17.145 20.855c-.07.31-.297.454-.575.375-.21-.066-.343-.293-.3-.543.046-.25.218-.394.468-.382.235.015.399.187.41.437 0 .035 0 .07-.003.113m0 0" style="stroke:none;fill-rule:nonzero;fill:#5f3a51;fill-opacity:1"/><path d="m5.992 20.46.215.505h-.539l.27-.613Zm2.23.517h-.46l.265-.622c.11.22.184.38.25.536.024.054.02.086-.054.086m13.988-.149q.1-.235.2-.453.014.001.03-.004l.25.59h-.53c.015-.047.03-.086.05-.133m0 0" style="stroke:none;fill-rule:nonzero;fill:#633e4d;fill-opacity:1"/></svg>